<?xml version="1.0" encoding="UTF-8" ?>
<!DOCTYPE svg PUBLIC "-//W3C//DTD SVG 1.1//EN" "http://www.w3.org/Graphics/SVG/1.1/DTD/svg11.dtd">
<svg width="42pt" height="59pt" viewBox="0 0 42 59" version="1.1" xmlns="http://www.w3.org/2000/svg">
<g id="#ca3136fe">
<path fill="#ca3136" opacity="1.00" d=" M 20.31 0.00 L 22.28 0.00 C 30.02 0.50 37.22 5.53 40.25 12.67 C 43.45 20.28 41.56 28.96 38.06 36.13 C 34.10 44.93 27.42 51.98 20.99 59.00 L 20.95 59.00 C 14.29 51.13 7.22 43.34 3.22 33.68 C 0.11 27.02 -1.26 18.97 2.03 12.12 C 5.25 5.07 12.57 0.24 20.31 0.00 M 17.20 12.25 C 10.65 14.84 9.53 24.69 15.43 28.59 C 21.16 33.45 30.82 28.35 30.50 21.00 C 30.83 14.46 23.11 9.23 17.20 12.25 Z" />
</g>
</svg>
